<?xml version="1.0" encoding="iso-8859-1"?>
<!-- Generator: Adobe Illustrator 19.0.0, SVG Export Plug-In . SVG Version: 6.00 Build 0)  -->
<svg version="1.1" id="Layer_1" xmlns="http://www.w3.org/2000/svg" xmlns:xlink="http://www.w3.org/1999/xlink" x="0px" y="0px"
	 viewBox="0 0 515.05 515.05" style="enable-background:new 0 0 515.05 515.05;" xml:space="preserve">
<path d="M51.328,84.769H0V57.241h136.072v27.528H84.208v152.648h-32.88V84.769z"/>
<path d="M158.512,181.545c0.808,23.528,19.248,33.688,40.104,33.688c15.24,0,26.2-2.144,36.096-5.88l4.816,22.728
	c-11.224,4.536-26.736,8.016-45.448,8.016c-42.24,0-67.104-25.928-67.104-65.768c0-36.088,21.92-70.04,63.624-70.04
	c42.232,0,56.144,34.752,56.144,63.36c0,6.152-0.536,10.96-1.072,13.896H158.512z M215.728,158.553
	c0.272-12.024-5.08-31.816-27-31.816c-20.312,0-28.864,18.456-30.208,31.816H215.728z"/>
<path d="M368.896,233.409c-6.952,3.2-20.584,6.68-36.888,6.68c-40.64,0-67.104-25.928-67.104-66.296
	c0-39.032,26.736-69.504,72.448-69.504c12.032,0,24.328,2.672,31.816,6.152l-5.88,24.592c-5.344-2.408-13.104-5.08-24.856-5.08
	c-25.136,0-40.104,18.448-39.832,42.24c0,26.736,17.376,41.968,39.832,41.968c11.496,0,19.512-2.408,25.928-5.08L368.896,233.409z"
	/>
<path d="M393.2,47.617h33.16v77.52h0.528c4.008-6.152,9.36-11.224,16.304-14.968c6.424-3.744,14.168-5.88,22.464-5.88
	c22.184,0,45.448,14.704,45.448,56.408v76.728h-32.88v-72.984c0-18.976-6.952-33.152-25.136-33.152
	c-12.832,0-21.912,8.552-25.392,18.448c-1.072,2.672-1.336,6.152-1.336,9.888v77.8H393.2L393.2,47.617L393.2,47.617z"/>
<g>
	
		<rect x="392.024" y="379.45" transform="matrix(-0.7071 -0.7071 0.7071 -0.7071 486.9174 1012.9479)" style="fill:#32BEA6;" width="122.447" height="52.36"/>
	<polygon style="fill:#32BEA6;" points="374.248,441.353 487.184,328.433 350.472,304.657 	"/>
</g>
<g>
</g>
<g>
</g>
<g>
</g>
<g>
</g>
<g>
</g>
<g>
</g>
<g>
</g>
<g>
</g>
<g>
</g>
<g>
</g>
<g>
</g>
<g>
</g>
<g>
</g>
<g>
</g>
<g>
</g>
</svg>
